<mxfile host="app.diagrams.net" agent="Mozilla/5.0 (Windows NT 10.0; Win64; x64) AppleWebKit/537.36 (KHTML, like Gecko) Chrome/137.0.0.0 Safari/537.36 Edg/137.0.0.0" version="26.2.3">
  <diagram name="Página-1" id="hLbuFhCUtYnsKigLhGrT">
    <mxGraphModel>
      <root>
        <mxCell id="0" />
        <mxCell id="1" parent="0" />
        <mxCell id="2" value="Stories" style="whiteSpace=wrap;strokeWidth=2;" vertex="1" parent="1">
          <mxGeometry x="58" y="8" width="949" height="457" as="geometry" />
        </mxCell>
        <mxCell id="3" value="Feed" style="whiteSpace=wrap;strokeWidth=2;verticalAlign=top;" vertex="1" parent="1">
          <mxGeometry x="1042" y="33" width="845" height="280" as="geometry" />
        </mxCell>
        <mxCell id="4" value="Postagem 1" style="whiteSpace=wrap;strokeWidth=2;" vertex="1" parent="3">
          <mxGeometry x="154" y="46" width="141" height="54" as="geometry" />
        </mxCell>
        <mxCell id="5" value="Comentário 1" style="whiteSpace=wrap;strokeWidth=2;" vertex="1" parent="3">
          <mxGeometry x="43" y="197" width="156" height="54" as="geometry" />
        </mxCell>
        <mxCell id="6" value="Comentário 2" style="whiteSpace=wrap;strokeWidth=2;" vertex="1" parent="3">
          <mxGeometry x="249" y="197" width="156" height="54" as="geometry" />
        </mxCell>
        <mxCell id="7" value="Postagem 2" style="whiteSpace=wrap;strokeWidth=2;" vertex="1" parent="3">
          <mxGeometry x="463" y="46" width="141" height="54" as="geometry" />
        </mxCell>
        <mxCell id="8" value="Comentário 3" style="whiteSpace=wrap;strokeWidth=2;" vertex="1" parent="3">
          <mxGeometry x="455" y="197" width="156" height="54" as="geometry" />
        </mxCell>
        <mxCell id="9" value="Postagem 3" style="whiteSpace=wrap;strokeWidth=2;" vertex="1" parent="3">
          <mxGeometry x="669" y="46" width="141" height="54" as="geometry" />
        </mxCell>
        <mxCell id="10" value="Comentário 4" style="whiteSpace=wrap;strokeWidth=2;" vertex="1" parent="3">
          <mxGeometry x="662" y="197" width="156" height="54" as="geometry" />
        </mxCell>
        <mxCell id="11" value="Comentado por" style="curved=1;startArrow=none;endArrow=block;exitX=0.24;exitY=0.99;entryX=0.5;entryY=0;" edge="1" parent="3" source="4" target="5">
          <mxGeometry relative="1" as="geometry">
            <Array as="points">
              <mxPoint x="121" y="148" />
            </Array>
          </mxGeometry>
        </mxCell>
        <mxCell id="12" value="Comentado por" style="curved=1;startArrow=none;endArrow=block;exitX=0.76;exitY=0.99;entryX=0.5;entryY=0;" edge="1" parent="3" source="4" target="6">
          <mxGeometry relative="1" as="geometry">
            <Array as="points">
              <mxPoint x="327" y="148" />
            </Array>
          </mxGeometry>
        </mxCell>
        <mxCell id="13" value="Comentado por" style="curved=1;startArrow=none;endArrow=block;exitX=0.5;exitY=0.99;entryX=0.5;entryY=0;" edge="1" parent="3" source="7" target="8">
          <mxGeometry relative="1" as="geometry">
            <Array as="points" />
          </mxGeometry>
        </mxCell>
        <mxCell id="14" value="Comentado por" style="curved=1;startArrow=none;endArrow=block;exitX=0.5;exitY=0.99;entryX=0.5;entryY=0;" edge="1" parent="3" source="9" target="10">
          <mxGeometry relative="1" as="geometry">
            <Array as="points" />
          </mxGeometry>
        </mxCell>
        <mxCell id="15" value="Usuário" style="whiteSpace=wrap;strokeWidth=2;" vertex="1" parent="1">
          <mxGeometry x="651" y="146" width="113" height="54" as="geometry" />
        </mxCell>
        <mxCell id="16" value="Postagens" style="rounded=1;arcSize=20;strokeWidth=2" vertex="1" parent="1">
          <mxGeometry x="712" y="790" width="100" height="54" as="geometry" />
        </mxCell>
        <mxCell id="17" value="Comentários" style="rounded=1;arcSize=20;strokeWidth=2" vertex="1" parent="1">
          <mxGeometry x="608" y="916" width="120" height="54" as="geometry" />
        </mxCell>
        <mxCell id="18" value="Usuários" style="rounded=1;arcSize=20;strokeWidth=2" vertex="1" parent="1">
          <mxGeometry x="939" y="664" width="90" height="54" as="geometry" />
        </mxCell>
        <mxCell id="19" value="Mensagens Diretas" style="rounded=1;arcSize=20;strokeWidth=2" vertex="1" parent="1">
          <mxGeometry x="1042" y="386" width="161" height="54" as="geometry" />
        </mxCell>
        <mxCell id="20" value="Likes" style="rounded=1;arcSize=20;strokeWidth=2" vertex="1" parent="1">
          <mxGeometry x="1238" y="916" width="66" height="54" as="geometry" />
        </mxCell>
        <mxCell id="21" value="Story 1" style="whiteSpace=wrap;strokeWidth=2;" vertex="1" parent="1">
          <mxGeometry x="93" y="386" width="110" height="54" as="geometry" />
        </mxCell>
        <mxCell id="22" value="Story 2" style="whiteSpace=wrap;strokeWidth=2;" vertex="1" parent="1">
          <mxGeometry x="253" y="386" width="110" height="54" as="geometry" />
        </mxCell>
        <mxCell id="23" value="Story 3" style="whiteSpace=wrap;strokeWidth=2;" vertex="1" parent="1">
          <mxGeometry x="413" y="386" width="110" height="54" as="geometry" />
        </mxCell>
        <mxCell id="24" value="Mensagem 1" style="rounded=1;arcSize=20;strokeWidth=2" vertex="1" parent="1">
          <mxGeometry x="76" y="537" width="117" height="54" as="geometry" />
        </mxCell>
        <mxCell id="25" value="Mensagem 2" style="rounded=1;arcSize=20;strokeWidth=2" vertex="1" parent="1">
          <mxGeometry x="966" y="537" width="117" height="54" as="geometry" />
        </mxCell>
        <mxCell id="26" value="Mensagem 3" style="rounded=1;arcSize=20;strokeWidth=2" vertex="1" parent="1">
          <mxGeometry x="1133" y="537" width="117" height="54" as="geometry" />
        </mxCell>
        <mxCell id="27" value="Publica" style="curved=1;startArrow=none;endArrow=block;exitX=0.57;exitY=1;entryX=0.47;entryY=0;" edge="1" parent="1" source="15" target="16">
          <mxGeometry relative="1" as="geometry">
            <Array as="points">
              <mxPoint x="755" y="350" />
              <mxPoint x="755" y="754" />
            </Array>
          </mxGeometry>
        </mxCell>
        <mxCell id="28" value="Comenta" style="curved=1;startArrow=none;endArrow=block;exitX=0.45;exitY=1;entryX=0.49;entryY=0.01;" edge="1" parent="1" source="15" target="17">
          <mxGeometry relative="1" as="geometry">
            <Array as="points">
              <mxPoint x="667" y="350" />
            </Array>
          </mxGeometry>
        </mxCell>
        <mxCell id="29" value="Segue" style="curved=1;startArrow=none;endArrow=block;exitX=0.63;exitY=1;entryX=0.01;entryY=0.2;" edge="1" parent="1" source="15" target="18">
          <mxGeometry relative="1" as="geometry">
            <Array as="points">
              <mxPoint x="804" y="350" />
              <mxPoint x="804" y="627" />
            </Array>
          </mxGeometry>
        </mxCell>
        <mxCell id="30" value="Envia Mensagem" style="curved=1;startArrow=none;endArrow=block;exitX=0.8;exitY=1;entryX=0;entryY=0.02;" edge="1" parent="1" source="15" target="19">
          <mxGeometry relative="1" as="geometry">
            <Array as="points">
              <mxPoint x="925" y="350" />
            </Array>
          </mxGeometry>
        </mxCell>
        <mxCell id="31" value="Recebe" style="curved=1;startArrow=none;endArrow=block;exitX=1;exitY=0.32;entryX=0.66;entryY=1;" edge="1" parent="1" source="18" target="15">
          <mxGeometry relative="1" as="geometry">
            <Array as="points">
              <mxPoint x="1285" y="627" />
              <mxPoint x="1285" y="501" />
              <mxPoint x="824" y="465" />
              <mxPoint x="824" y="350" />
            </Array>
          </mxGeometry>
        </mxCell>
        <mxCell id="32" value="Interage" style="curved=1;startArrow=none;endArrow=block;exitX=0.5;exitY=0.99;entryX=1;entryY=0.24;" edge="1" parent="1" source="18" target="16">
          <mxGeometry relative="1" as="geometry">
            <Array as="points">
              <mxPoint x="984" y="754" />
            </Array>
          </mxGeometry>
        </mxCell>
        <mxCell id="33" value="Recebe Comentários" style="curved=1;startArrow=none;endArrow=block;exitX=0.5;exitY=1;entryX=0.83;entryY=0.01;" edge="1" parent="1" source="16" target="17">
          <mxGeometry relative="1" as="geometry">
            <Array as="points">
              <mxPoint x="762" y="880" />
            </Array>
          </mxGeometry>
        </mxCell>
        <mxCell id="34" value="Recebe Likes" style="curved=1;startArrow=none;endArrow=block;exitX=1;exitY=0.61;entryX=0.5;entryY=0.01;" edge="1" parent="1" source="16" target="20">
          <mxGeometry relative="1" as="geometry">
            <Array as="points">
              <mxPoint x="1271" y="880" />
            </Array>
          </mxGeometry>
        </mxCell>
        <mxCell id="35" value="De" style="curved=1;startArrow=none;endArrow=block;exitX=0.95;exitY=0.01;entryX=0.69;entryY=1;" edge="1" parent="1" source="20" target="15">
          <mxGeometry relative="1" as="geometry">
            <Array as="points">
              <mxPoint x="1339" y="880" />
              <mxPoint x="1339" y="501" />
              <mxPoint x="844" y="465" />
              <mxPoint x="844" y="350" />
            </Array>
          </mxGeometry>
        </mxCell>
        <mxCell id="36" value="Visualiza" style="curved=1;startArrow=none;endArrow=block;exitX=0;exitY=0.83;entryX=0.5;entryY=0;" edge="1" parent="1" source="15" target="21">
          <mxGeometry relative="1" as="geometry">
            <Array as="points">
              <mxPoint x="148" y="350" />
            </Array>
          </mxGeometry>
        </mxCell>
        <mxCell id="37" value="Visualiza" style="curved=1;startArrow=none;endArrow=block;exitX=0;exitY=0.97;entryX=0.5;entryY=0;" edge="1" parent="1" source="15" target="22">
          <mxGeometry relative="1" as="geometry">
            <Array as="points">
              <mxPoint x="308" y="350" />
            </Array>
          </mxGeometry>
        </mxCell>
        <mxCell id="38" value="Visualiza" style="curved=1;startArrow=none;endArrow=block;exitX=0.18;exitY=1;entryX=0.5;entryY=0;" edge="1" parent="1" source="15" target="23">
          <mxGeometry relative="1" as="geometry">
            <Array as="points">
              <mxPoint x="467" y="350" />
            </Array>
          </mxGeometry>
        </mxCell>
        <mxCell id="39" value="Contém" style="curved=1;startArrow=none;endArrow=block;exitX=0;exitY=0.57;entryX=0.15;entryY=0;" edge="1" parent="1" source="19" target="24">
          <mxGeometry relative="1" as="geometry">
            <Array as="points">
              <mxPoint x="38" y="465" />
              <mxPoint x="38" y="501" />
            </Array>
          </mxGeometry>
        </mxCell>
        <mxCell id="40" value="Contém" style="curved=1;startArrow=none;endArrow=block;exitX=0.49;exitY=1;entryX=0.5;entryY=0;" edge="1" parent="1" source="19" target="25">
          <mxGeometry relative="1" as="geometry">
            <Array as="points">
              <mxPoint x="1121" y="465" />
              <mxPoint x="1024" y="501" />
            </Array>
          </mxGeometry>
        </mxCell>
        <mxCell id="41" value="Contém" style="curved=1;startArrow=none;endArrow=block;exitX=1;exitY=0.97;entryX=0.5;entryY=0;" edge="1" parent="1" source="19" target="26">
          <mxGeometry relative="1" as="geometry">
            <Array as="points">
              <mxPoint x="1287" y="465" />
              <mxPoint x="1191" y="501" />
            </Array>
          </mxGeometry>
        </mxCell>
        <mxCell id="42" value="Enviada por" style="curved=1;startArrow=none;endArrow=block;exitX=1;exitY=0.36;entryX=0.36;entryY=1;" edge="1" parent="1" source="24" target="15">
          <mxGeometry relative="1" as="geometry">
            <Array as="points">
              <mxPoint x="602" y="501" />
              <mxPoint x="602" y="350" />
            </Array>
          </mxGeometry>
        </mxCell>
        <mxCell id="43" value="Enviada por" style="curved=1;startArrow=none;endArrow=block;exitX=0.5;exitY=1;entryX=0.69;entryY=-0.01;" edge="1" parent="1" source="25" target="18">
          <mxGeometry relative="1" as="geometry">
            <Array as="points">
              <mxPoint x="1024" y="627" />
            </Array>
          </mxGeometry>
        </mxCell>
        <mxCell id="44" value="Enviada por" style="curved=1;startArrow=none;endArrow=block;exitX=0.5;exitY=1;entryX=1;entryY=0.24;" edge="1" parent="1" source="26" target="18">
          <mxGeometry relative="1" as="geometry">
            <Array as="points">
              <mxPoint x="1191" y="627" />
            </Array>
          </mxGeometry>
        </mxCell>
      </root>
    </mxGraphModel>
  </diagram>
</mxfile>
